<?xml version="1.0" encoding="utf-8"?>
<svg xmlns="http://www.w3.org/2000/svg" xmlns:xlink="http://www.w3.org/1999/xlink" width="528" height="336" viewBox="0 0 2112 1344">
<defs>
  <clipPath id="clip730">
    <rect x="0" y="0" width="2112" height="1344"/>
  </clipPath>
</defs>
<path clip-path="url(#clip730)" d="M0 1344 L2112 1344 L2112 0 L0 0  Z" fill="#ffffff" fill-rule="evenodd" fill-opacity="1"/>
<defs>
  <clipPath id="clip731">
    <rect x="422" y="0" width="1479" height="1344"/>
  </clipPath>
</defs>
<path clip-path="url(#clip730)" d="M47.2441 1173.47 L1747.4 1173.47 L1747.4 120.723 L47.2441 120.723  Z" fill="#ffffff" fill-rule="evenodd" fill-opacity="1"/>
<defs>
  <clipPath id="clip732">
    <rect x="47" y="120" width="1701" height="1054"/>
  </clipPath>
</defs>
<polyline clip-path="url(#clip732)" style="stroke:#000000; stroke-linecap:round; stroke-linejoin:round; stroke-width:2; stroke-opacity:0.1; fill:none" points="95.3617,1173.47 95.3617,120.723 "/>
<polyline clip-path="url(#clip732)" style="stroke:#000000; stroke-linecap:round; stroke-linejoin:round; stroke-width:2; stroke-opacity:0.1; fill:none" points="341.662,1173.47 341.662,120.723 "/>
<polyline clip-path="url(#clip732)" style="stroke:#000000; stroke-linecap:round; stroke-linejoin:round; stroke-width:2; stroke-opacity:0.1; fill:none" points="587.963,1173.47 587.963,120.723 "/>
<polyline clip-path="url(#clip732)" style="stroke:#000000; stroke-linecap:round; stroke-linejoin:round; stroke-width:2; stroke-opacity:0.1; fill:none" points="834.264,1173.47 834.264,120.723 "/>
<polyline clip-path="url(#clip732)" style="stroke:#000000; stroke-linecap:round; stroke-linejoin:round; stroke-width:2; stroke-opacity:0.1; fill:none" points="1080.56,1173.47 1080.56,120.723 "/>
<polyline clip-path="url(#clip732)" style="stroke:#000000; stroke-linecap:round; stroke-linejoin:round; stroke-width:2; stroke-opacity:0.1; fill:none" points="1326.87,1173.47 1326.87,120.723 "/>
<polyline clip-path="url(#clip732)" style="stroke:#000000; stroke-linecap:round; stroke-linejoin:round; stroke-width:2; stroke-opacity:0.1; fill:none" points="1573.17,1173.47 1573.17,120.723 "/>
<polyline clip-path="url(#clip730)" style="stroke:#000000; stroke-linecap:round; stroke-linejoin:round; stroke-width:4; stroke-opacity:1; fill:none" points="47.2441,1173.47 1747.4,1173.47 "/>
<polyline clip-path="url(#clip730)" style="stroke:#000000; stroke-linecap:round; stroke-linejoin:round; stroke-width:4; stroke-opacity:1; fill:none" points="95.3617,1173.47 95.3617,1154.57 "/>
<polyline clip-path="url(#clip730)" style="stroke:#000000; stroke-linecap:round; stroke-linejoin:round; stroke-width:4; stroke-opacity:1; fill:none" points="341.662,1173.47 341.662,1154.57 "/>
<polyline clip-path="url(#clip730)" style="stroke:#000000; stroke-linecap:round; stroke-linejoin:round; stroke-width:4; stroke-opacity:1; fill:none" points="587.963,1173.47 587.963,1154.57 "/>
<polyline clip-path="url(#clip730)" style="stroke:#000000; stroke-linecap:round; stroke-linejoin:round; stroke-width:4; stroke-opacity:1; fill:none" points="834.264,1173.47 834.264,1154.57 "/>
<polyline clip-path="url(#clip730)" style="stroke:#000000; stroke-linecap:round; stroke-linejoin:round; stroke-width:4; stroke-opacity:1; fill:none" points="1080.56,1173.47 1080.56,1154.57 "/>
<polyline clip-path="url(#clip730)" style="stroke:#000000; stroke-linecap:round; stroke-linejoin:round; stroke-width:4; stroke-opacity:1; fill:none" points="1326.87,1173.47 1326.87,1154.57 "/>
<polyline clip-path="url(#clip730)" style="stroke:#000000; stroke-linecap:round; stroke-linejoin:round; stroke-width:4; stroke-opacity:1; fill:none" points="1573.17,1173.47 1573.17,1154.57 "/>
<path clip-path="url(#clip730)" d="M95.3617 1202.09 Q91.7506 1202.09 89.9219 1205.65 Q88.1163 1209.19 88.1163 1216.32 Q88.1163 1223.43 89.9219 1226.99 Q91.7506 1230.53 95.3617 1230.53 Q98.9959 1230.53 100.801 1226.99 Q102.63 1223.43 102.63 1216.32 Q102.63 1209.19 100.801 1205.65 Q98.9959 1202.09 95.3617 1202.09 M95.3617 1198.38 Q101.172 1198.38 104.227 1202.99 Q107.306 1207.57 107.306 1216.32 Q107.306 1225.05 104.227 1229.65 Q101.172 1234.24 95.3617 1234.24 Q89.5515 1234.24 86.4728 1229.65 Q83.4173 1225.05 83.4173 1216.32 Q83.4173 1207.57 86.4728 1202.99 Q89.5515 1198.38 95.3617 1198.38 Z" fill="#000000" fill-rule="nonzero" fill-opacity="1" /><path clip-path="url(#clip730)" d="M336.315 1229.63 L352.635 1229.63 L352.635 1233.57 L330.69 1233.57 L330.69 1229.63 Q333.352 1226.88 337.936 1222.25 Q342.542 1217.59 343.723 1216.25 Q345.968 1213.73 346.848 1211.99 Q347.75 1210.23 347.75 1208.54 Q347.75 1205.79 345.806 1204.05 Q343.885 1202.32 340.783 1202.32 Q338.584 1202.32 336.13 1203.08 Q333.7 1203.84 330.922 1205.4 L330.922 1200.67 Q333.746 1199.54 336.2 1198.96 Q338.653 1198.38 340.69 1198.38 Q346.061 1198.38 349.255 1201.07 Q352.449 1203.75 352.449 1208.24 Q352.449 1210.37 351.639 1212.29 Q350.852 1214.19 348.746 1216.78 Q348.167 1217.46 345.065 1220.67 Q341.963 1223.87 336.315 1229.63 Z" fill="#000000" fill-rule="nonzero" fill-opacity="1" /><path clip-path="url(#clip730)" d="M590.973 1203.08 L579.167 1221.53 L590.973 1221.53 L590.973 1203.08 M589.746 1199.01 L595.625 1199.01 L595.625 1221.53 L600.556 1221.53 L600.556 1225.42 L595.625 1225.42 L595.625 1233.57 L590.973 1233.57 L590.973 1225.42 L575.371 1225.42 L575.371 1220.9 L589.746 1199.01 Z" fill="#000000" fill-rule="nonzero" fill-opacity="1" /><path clip-path="url(#clip730)" d="M834.669 1214.42 Q831.521 1214.42 829.669 1216.58 Q827.841 1218.73 827.841 1222.48 Q827.841 1226.21 829.669 1228.38 Q831.521 1230.53 834.669 1230.53 Q837.817 1230.53 839.646 1228.38 Q841.498 1226.21 841.498 1222.48 Q841.498 1218.73 839.646 1216.58 Q837.817 1214.42 834.669 1214.42 M843.952 1199.77 L843.952 1204.03 Q842.192 1203.2 840.387 1202.76 Q838.604 1202.32 836.845 1202.32 Q832.215 1202.32 829.762 1205.44 Q827.331 1208.57 826.984 1214.89 Q828.35 1212.87 830.41 1211.81 Q832.47 1210.72 834.947 1210.72 Q840.155 1210.72 843.165 1213.89 Q846.197 1217.04 846.197 1222.48 Q846.197 1227.8 843.049 1231.02 Q839.901 1234.24 834.669 1234.24 Q828.674 1234.24 825.503 1229.65 Q822.331 1225.05 822.331 1216.32 Q822.331 1208.13 826.22 1203.27 Q830.109 1198.38 836.66 1198.38 Q838.419 1198.38 840.202 1198.73 Q842.007 1199.08 843.952 1199.77 Z" fill="#000000" fill-rule="nonzero" fill-opacity="1" /><path clip-path="url(#clip730)" d="M1080.56 1217.15 Q1077.23 1217.15 1075.31 1218.94 Q1073.41 1220.72 1073.41 1223.84 Q1073.41 1226.97 1075.31 1228.75 Q1077.23 1230.53 1080.56 1230.53 Q1083.9 1230.53 1085.82 1228.75 Q1087.74 1226.95 1087.74 1223.84 Q1087.74 1220.72 1085.82 1218.94 Q1083.92 1217.15 1080.56 1217.15 M1075.89 1215.16 Q1072.88 1214.42 1071.19 1212.36 Q1069.52 1210.3 1069.52 1207.34 Q1069.52 1203.2 1072.46 1200.79 Q1075.43 1198.38 1080.56 1198.38 Q1085.73 1198.38 1088.67 1200.79 Q1091.61 1203.2 1091.61 1207.34 Q1091.61 1210.3 1089.92 1212.36 Q1088.25 1214.42 1085.26 1215.16 Q1088.64 1215.95 1090.52 1218.24 Q1092.42 1220.53 1092.42 1223.84 Q1092.42 1228.87 1089.34 1231.55 Q1086.28 1234.24 1080.56 1234.24 Q1074.85 1234.24 1071.77 1231.55 Q1068.71 1228.87 1068.71 1223.84 Q1068.71 1220.53 1070.61 1218.24 Q1072.51 1215.95 1075.89 1215.16 M1074.18 1207.78 Q1074.18 1210.47 1075.84 1211.97 Q1077.53 1213.47 1080.56 1213.47 Q1083.57 1213.47 1085.26 1211.97 Q1086.98 1210.47 1086.98 1207.78 Q1086.98 1205.09 1085.26 1203.59 Q1083.57 1202.09 1080.56 1202.09 Q1077.53 1202.09 1075.84 1203.59 Q1074.18 1205.09 1074.18 1207.78 Z" fill="#000000" fill-rule="nonzero" fill-opacity="1" /><path clip-path="url(#clip730)" d="M1301.55 1229.63 L1309.19 1229.63 L1309.19 1203.27 L1300.88 1204.93 L1300.88 1200.67 L1309.15 1199.01 L1313.82 1199.01 L1313.82 1229.63 L1321.46 1229.63 L1321.46 1233.57 L1301.55 1233.57 L1301.55 1229.63 Z" fill="#000000" fill-rule="nonzero" fill-opacity="1" /><path clip-path="url(#clip730)" d="M1340.9 1202.09 Q1337.29 1202.09 1335.47 1205.65 Q1333.66 1209.19 1333.66 1216.32 Q1333.66 1223.43 1335.47 1226.99 Q1337.29 1230.53 1340.9 1230.53 Q1344.54 1230.53 1346.34 1226.99 Q1348.17 1223.43 1348.17 1216.32 Q1348.17 1209.19 1346.34 1205.65 Q1344.54 1202.09 1340.9 1202.09 M1340.9 1198.38 Q1346.72 1198.38 1349.77 1202.99 Q1352.85 1207.57 1352.85 1216.32 Q1352.85 1225.05 1349.77 1229.65 Q1346.72 1234.24 1340.9 1234.24 Q1335.09 1234.24 1332.02 1229.65 Q1328.96 1225.05 1328.96 1216.32 Q1328.96 1207.57 1332.02 1202.99 Q1335.09 1198.38 1340.9 1198.38 Z" fill="#000000" fill-rule="nonzero" fill-opacity="1" /><path clip-path="url(#clip730)" d="M1548.65 1229.63 L1556.29 1229.63 L1556.29 1203.27 L1547.98 1204.93 L1547.98 1200.67 L1556.25 1199.01 L1560.92 1199.01 L1560.92 1229.63 L1568.56 1229.63 L1568.56 1233.57 L1548.65 1233.57 L1548.65 1229.63 Z" fill="#000000" fill-rule="nonzero" fill-opacity="1" /><path clip-path="url(#clip730)" d="M1582.03 1229.63 L1598.35 1229.63 L1598.35 1233.57 L1576.41 1233.57 L1576.41 1229.63 Q1579.07 1226.88 1583.65 1222.25 Q1588.26 1217.59 1589.44 1216.25 Q1591.68 1213.73 1592.56 1211.99 Q1593.47 1210.23 1593.47 1208.54 Q1593.47 1205.79 1591.52 1204.05 Q1589.6 1202.32 1586.5 1202.32 Q1584.3 1202.32 1581.85 1203.08 Q1579.42 1203.84 1576.64 1205.4 L1576.64 1200.67 Q1579.46 1199.54 1581.92 1198.96 Q1584.37 1198.38 1586.41 1198.38 Q1591.78 1198.38 1594.97 1201.07 Q1598.17 1203.75 1598.17 1208.24 Q1598.17 1210.37 1597.36 1212.29 Q1596.57 1214.19 1594.46 1216.78 Q1593.88 1217.46 1590.78 1220.67 Q1587.68 1223.87 1582.03 1229.63 Z" fill="#000000" fill-rule="nonzero" fill-opacity="1" /><path clip-path="url(#clip730)" d="M896.382 1268.25 L896.382 1278.37 L908.445 1278.37 L908.445 1282.92 L896.382 1282.92 L896.382 1302.27 Q896.382 1306.63 897.56 1307.87 Q898.769 1309.11 902.43 1309.11 L908.445 1309.11 L908.445 1314.01 L902.43 1314.01 Q895.65 1314.01 893.072 1311.5 Q890.494 1308.95 890.494 1302.27 L890.494 1282.92 L886.197 1282.92 L886.197 1278.37 L890.494 1278.37 L890.494 1268.25 L896.382 1268.25 Z" fill="#000000" fill-rule="nonzero" fill-opacity="1" /><polyline clip-path="url(#clip730)" style="stroke:#000000; stroke-linecap:round; stroke-linejoin:round; stroke-width:4; stroke-opacity:1; fill:none" points="47.2441,1173.47 47.2441,120.723 "/>
<path clip-path="url(#clip730)" d="M491.279 18.8205 L491.279 41.5461 L501.568 41.5461 Q507.28 41.5461 510.399 38.5889 Q513.518 35.6318 513.518 30.163 Q513.518 24.7348 510.399 21.7777 Q507.28 18.8205 501.568 18.8205 L491.279 18.8205 M483.096 12.096 L501.568 12.096 Q511.736 12.096 516.921 16.714 Q522.147 21.2916 522.147 30.163 Q522.147 39.1155 516.921 43.6931 Q511.736 48.2706 501.568 48.2706 L491.279 48.2706 L491.279 72.576 L483.096 72.576 L483.096 12.096 Z" fill="#000000" fill-rule="nonzero" fill-opacity="1" /><path clip-path="url(#clip730)" d="M568.651 48.0275 L568.651 51.6733 L534.38 51.6733 Q534.866 59.3701 538.998 63.421 Q543.171 67.4314 550.584 67.4314 Q554.878 67.4314 558.888 66.3781 Q562.939 65.3249 566.909 63.2184 L566.909 70.267 Q562.899 71.9684 558.686 72.8596 Q554.473 73.7508 550.138 73.7508 Q539.282 73.7508 532.922 67.4314 Q526.603 61.1119 526.603 50.3365 Q526.603 39.1965 532.598 32.6746 Q538.634 26.1121 548.842 26.1121 Q557.997 26.1121 563.304 32.0264 Q568.651 37.9003 568.651 48.0275 M561.197 45.84 Q561.116 39.7232 557.754 36.0774 Q554.432 32.4315 548.923 32.4315 Q542.685 32.4315 538.917 35.9558 Q535.191 39.4801 534.623 45.8805 L561.197 45.84 Z" fill="#000000" fill-rule="nonzero" fill-opacity="1" /><path clip-path="url(#clip730)" d="M607.175 34.1734 Q605.919 33.4443 604.42 33.1202 Q602.962 32.7556 601.18 32.7556 Q594.86 32.7556 591.458 36.8875 Q588.095 40.9789 588.095 48.6757 L588.095 72.576 L580.601 72.576 L580.601 27.2059 L588.095 27.2059 L588.095 34.2544 Q590.445 30.1225 594.212 28.1376 Q597.98 26.1121 603.367 26.1121 Q604.137 26.1121 605.069 26.2337 Q606 26.3147 607.135 26.5172 L607.175 34.1734 Z" fill="#000000" fill-rule="nonzero" fill-opacity="1" /><path clip-path="url(#clip730)" d="M643.917 28.5427 L643.917 35.5912 Q640.757 33.9709 637.354 33.1607 Q633.952 32.3505 630.306 32.3505 Q624.756 32.3505 621.961 34.0519 Q619.206 35.7533 619.206 39.156 Q619.206 41.7486 621.191 43.2475 Q623.176 44.7058 629.171 46.0426 L631.724 46.6097 Q639.663 48.3111 642.985 51.4303 Q646.347 54.509 646.347 60.0587 Q646.347 66.3781 641.324 70.0644 Q636.342 73.7508 627.592 73.7508 Q623.946 73.7508 619.976 73.0216 Q616.047 72.3329 611.672 70.9151 L611.672 63.2184 Q615.804 65.3654 619.814 66.4591 Q623.824 67.5124 627.754 67.5124 Q633.02 67.5124 635.855 65.73 Q638.691 63.9071 638.691 60.6258 Q638.691 57.5877 636.625 55.9673 Q634.6 54.3469 627.673 52.8481 L625.08 52.2405 Q618.153 50.7821 615.074 47.7845 Q611.996 44.7463 611.996 39.4801 Q611.996 33.0797 616.533 29.5959 Q621.07 26.1121 629.415 26.1121 Q633.546 26.1121 637.192 26.7198 Q640.838 27.3274 643.917 28.5427 Z" fill="#000000" fill-rule="nonzero" fill-opacity="1" /><path clip-path="url(#clip730)" d="M658.216 27.2059 L665.67 27.2059 L665.67 72.576 L658.216 72.576 L658.216 27.2059 M658.216 9.54393 L665.67 9.54393 L665.67 18.9825 L658.216 18.9825 L658.216 9.54393 Z" fill="#000000" fill-rule="nonzero" fill-opacity="1" /><path clip-path="url(#clip730)" d="M710.19 28.5427 L710.19 35.5912 Q707.03 33.9709 703.627 33.1607 Q700.224 32.3505 696.579 32.3505 Q691.029 32.3505 688.234 34.0519 Q685.479 35.7533 685.479 39.156 Q685.479 41.7486 687.464 43.2475 Q689.449 44.7058 695.444 46.0426 L697.996 46.6097 Q705.936 48.3111 709.258 51.4303 Q712.62 54.509 712.62 60.0587 Q712.62 66.3781 707.597 70.0644 Q702.614 73.7508 693.864 73.7508 Q690.219 73.7508 686.249 73.0216 Q682.319 72.3329 677.944 70.9151 L677.944 63.2184 Q682.076 65.3654 686.087 66.4591 Q690.097 67.5124 694.026 67.5124 Q699.293 67.5124 702.128 65.73 Q704.964 63.9071 704.964 60.6258 Q704.964 57.5877 702.898 55.9673 Q700.873 54.3469 693.945 52.8481 L691.353 52.2405 Q684.426 50.7821 681.347 47.7845 Q678.268 44.7463 678.268 39.4801 Q678.268 33.0797 682.805 29.5959 Q687.342 26.1121 695.687 26.1121 Q699.819 26.1121 703.465 26.7198 Q707.111 27.3274 710.19 28.5427 Z" fill="#000000" fill-rule="nonzero" fill-opacity="1" /><path clip-path="url(#clip730)" d="M731.862 14.324 L731.862 27.2059 L747.215 27.2059 L747.215 32.9987 L731.862 32.9987 L731.862 57.6282 Q731.862 63.1779 733.361 64.7578 Q734.9 66.3376 739.559 66.3376 L747.215 66.3376 L747.215 72.576 L739.559 72.576 Q730.93 72.576 727.649 69.3758 Q724.368 66.1351 724.368 57.6282 L724.368 32.9987 L718.899 32.9987 L718.899 27.2059 L724.368 27.2059 L724.368 14.324 L731.862 14.324 Z" fill="#000000" fill-rule="nonzero" fill-opacity="1" /><path clip-path="url(#clip730)" d="M795.826 48.0275 L795.826 51.6733 L761.555 51.6733 Q762.041 59.3701 766.173 63.421 Q770.346 67.4314 777.759 67.4314 Q782.053 67.4314 786.063 66.3781 Q790.114 65.3249 794.084 63.2184 L794.084 70.267 Q790.073 71.9684 785.86 72.8596 Q781.648 73.7508 777.313 73.7508 Q766.457 73.7508 760.097 67.4314 Q753.777 61.1119 753.777 50.3365 Q753.777 39.1965 759.773 32.6746 Q765.808 26.1121 776.017 26.1121 Q785.172 26.1121 790.479 32.0264 Q795.826 37.9003 795.826 48.0275 M788.372 45.84 Q788.291 39.7232 784.929 36.0774 Q781.607 32.4315 776.098 32.4315 Q769.859 32.4315 766.092 35.9558 Q762.365 39.4801 761.798 45.8805 L788.372 45.84 Z" fill="#000000" fill-rule="nonzero" fill-opacity="1" /><path clip-path="url(#clip730)" d="M845.773 45.1919 L845.773 72.576 L838.32 72.576 L838.32 45.4349 Q838.32 38.994 835.808 35.7938 Q833.297 32.5936 828.273 32.5936 Q822.238 32.5936 818.754 36.4419 Q815.27 40.2903 815.27 46.9338 L815.27 72.576 L807.776 72.576 L807.776 27.2059 L815.27 27.2059 L815.27 34.2544 Q817.944 30.163 821.549 28.1376 Q825.195 26.1121 829.934 26.1121 Q837.753 26.1121 841.763 30.9732 Q845.773 35.7938 845.773 45.1919 Z" fill="#000000" fill-rule="nonzero" fill-opacity="1" /><path clip-path="url(#clip730)" d="M893.29 28.9478 L893.29 35.9153 Q890.131 34.1734 886.931 33.3227 Q883.771 32.4315 880.53 32.4315 Q873.279 32.4315 869.269 37.0496 Q865.258 41.6271 865.258 49.9314 Q865.258 58.2358 869.269 62.8538 Q873.279 67.4314 880.53 67.4314 Q883.771 67.4314 886.931 66.5807 Q890.131 65.6895 893.29 63.9476 L893.29 70.8341 Q890.171 72.2924 886.809 73.0216 Q883.487 73.7508 879.72 73.7508 Q869.471 73.7508 863.435 67.3098 Q857.399 60.8689 857.399 49.9314 Q857.399 38.832 863.476 32.472 Q869.593 26.1121 880.206 26.1121 Q883.649 26.1121 886.931 26.8413 Q890.212 27.5299 893.29 28.9478 Z" fill="#000000" fill-rule="nonzero" fill-opacity="1" /><path clip-path="url(#clip730)" d="M945.061 48.0275 L945.061 51.6733 L910.79 51.6733 Q911.276 59.3701 915.408 63.421 Q919.581 67.4314 926.994 67.4314 Q931.288 67.4314 935.298 66.3781 Q939.349 65.3249 943.319 63.2184 L943.319 70.267 Q939.309 71.9684 935.096 72.8596 Q930.883 73.7508 926.548 73.7508 Q915.692 73.7508 909.332 67.4314 Q903.013 61.1119 903.013 50.3365 Q903.013 39.1965 909.008 32.6746 Q915.044 26.1121 925.252 26.1121 Q934.407 26.1121 939.714 32.0264 Q945.061 37.9003 945.061 48.0275 M937.607 45.84 Q937.526 39.7232 934.164 36.0774 Q930.842 32.4315 925.333 32.4315 Q919.095 32.4315 915.327 35.9558 Q911.601 39.4801 911.033 45.8805 L937.607 45.84 Z" fill="#000000" fill-rule="nonzero" fill-opacity="1" /><path clip-path="url(#clip730)" d="M992.173 43.6931 L992.173 65.8515 L1005.3 65.8515 Q1011.9 65.8515 1015.06 63.1374 Q1018.26 60.3828 1018.26 54.752 Q1018.26 49.0808 1015.06 46.4072 Q1011.9 43.6931 1005.3 43.6931 L992.173 43.6931 M992.173 18.8205 L992.173 37.0496 L1004.29 37.0496 Q1010.28 37.0496 1013.2 34.8216 Q1016.15 32.5531 1016.15 27.935 Q1016.15 23.3575 1013.2 21.089 Q1010.28 18.8205 1004.29 18.8205 L992.173 18.8205 M983.99 12.096 L1004.89 12.096 Q1014.25 12.096 1019.31 15.9849 Q1024.38 19.8737 1024.38 27.0438 Q1024.38 32.5936 1021.79 35.8748 Q1019.19 39.156 1014.17 39.9662 Q1020.21 41.2625 1023.53 45.3944 Q1026.89 49.4858 1026.89 55.6432 Q1026.89 63.745 1021.38 68.1605 Q1015.87 72.576 1005.7 72.576 L983.99 72.576 L983.99 12.096 Z" fill="#000000" fill-rule="nonzero" fill-opacity="1" /><path clip-path="url(#clip730)" d="M1061.2 49.7694 Q1052.17 49.7694 1048.68 51.8354 Q1045.2 53.9013 1045.2 58.8839 Q1045.2 62.8538 1047.79 65.2034 Q1050.43 67.5124 1054.92 67.5124 Q1061.12 67.5124 1064.85 63.1374 Q1068.61 58.7219 1068.61 51.4303 L1068.61 49.7694 L1061.2 49.7694 M1076.07 46.6907 L1076.07 72.576 L1068.61 72.576 L1068.61 65.6895 Q1066.06 69.8214 1062.25 71.8063 Q1058.45 73.7508 1052.94 73.7508 Q1045.97 73.7508 1041.84 69.8619 Q1037.75 65.9325 1037.75 59.3701 Q1037.75 51.7138 1042.85 47.825 Q1047.99 43.9361 1058.16 43.9361 L1068.61 43.9361 L1068.61 43.2069 Q1068.61 38.0623 1065.21 35.2672 Q1061.85 32.4315 1055.73 32.4315 Q1051.84 32.4315 1048.16 33.3632 Q1044.47 34.295 1041.07 36.1584 L1041.07 29.2718 Q1045.16 27.692 1049.01 26.9223 Q1052.86 26.1121 1056.5 26.1121 Q1066.35 26.1121 1071.21 31.2163 Q1076.07 36.3204 1076.07 46.6907 Z" fill="#000000" fill-rule="nonzero" fill-opacity="1" /><path clip-path="url(#clip730)" d="M1117.71 34.1734 Q1116.45 33.4443 1114.96 33.1202 Q1113.5 32.7556 1111.72 32.7556 Q1105.4 32.7556 1101.99 36.8875 Q1098.63 40.9789 1098.63 48.6757 L1098.63 72.576 L1091.14 72.576 L1091.14 27.2059 L1098.63 27.2059 L1098.63 34.2544 Q1100.98 30.1225 1104.75 28.1376 Q1108.51 26.1121 1113.9 26.1121 Q1114.67 26.1121 1115.6 26.2337 Q1116.54 26.3147 1117.67 26.5172 L1117.71 34.1734 Z" fill="#000000" fill-rule="nonzero" fill-opacity="1" /><path clip-path="url(#clip730)" d="M1156.36 28.9478 L1156.36 35.9153 Q1153.2 34.1734 1150 33.3227 Q1146.84 32.4315 1143.6 32.4315 Q1136.34 32.4315 1132.33 37.0496 Q1128.32 41.6271 1128.32 49.9314 Q1128.32 58.2358 1132.33 62.8538 Q1136.34 67.4314 1143.6 67.4314 Q1146.84 67.4314 1150 66.5807 Q1153.2 65.6895 1156.36 63.9476 L1156.36 70.8341 Q1153.24 72.2924 1149.87 73.0216 Q1146.55 73.7508 1142.79 73.7508 Q1132.54 73.7508 1126.5 67.3098 Q1120.47 60.8689 1120.47 49.9314 Q1120.47 38.832 1126.54 32.472 Q1132.66 26.1121 1143.27 26.1121 Q1146.72 26.1121 1150 26.8413 Q1153.28 27.5299 1156.36 28.9478 Z" fill="#000000" fill-rule="nonzero" fill-opacity="1" /><path clip-path="url(#clip730)" d="M1186.9 32.4315 Q1180.9 32.4315 1177.42 37.1306 Q1173.94 41.7891 1173.94 49.9314 Q1173.94 58.0738 1177.38 62.7728 Q1180.86 67.4314 1186.9 67.4314 Q1192.85 67.4314 1196.34 62.7323 Q1199.82 58.0333 1199.82 49.9314 Q1199.82 41.8701 1196.34 37.1711 Q1192.85 32.4315 1186.9 32.4315 M1186.9 26.1121 Q1196.62 26.1121 1202.17 32.4315 Q1207.72 38.7509 1207.72 49.9314 Q1207.72 61.0714 1202.17 67.4314 Q1196.62 73.7508 1186.9 73.7508 Q1177.14 73.7508 1171.59 67.4314 Q1166.08 61.0714 1166.08 49.9314 Q1166.08 38.7509 1171.59 32.4315 Q1177.14 26.1121 1186.9 26.1121 Z" fill="#000000" fill-rule="nonzero" fill-opacity="1" /><path clip-path="url(#clip730)" d="M1249.93 34.0924 L1249.93 9.54393 L1257.39 9.54393 L1257.39 72.576 L1249.93 72.576 L1249.93 65.7705 Q1247.58 69.8214 1243.98 71.8063 Q1240.41 73.7508 1235.39 73.7508 Q1227.17 73.7508 1221.98 67.1883 Q1216.84 60.6258 1216.84 49.9314 Q1216.84 39.2371 1221.98 32.6746 Q1227.17 26.1121 1235.39 26.1121 Q1240.41 26.1121 1243.98 28.0971 Q1247.58 30.0415 1249.93 34.0924 M1224.53 49.9314 Q1224.53 58.1548 1227.9 62.8538 Q1231.3 67.5124 1237.21 67.5124 Q1243.13 67.5124 1246.53 62.8538 Q1249.93 58.1548 1249.93 49.9314 Q1249.93 41.7081 1246.53 37.0496 Q1243.13 32.3505 1237.21 32.3505 Q1231.3 32.3505 1227.9 37.0496 Q1224.53 41.7081 1224.53 49.9314 Z" fill="#000000" fill-rule="nonzero" fill-opacity="1" /><path clip-path="url(#clip730)" d="M1311.55 48.0275 L1311.55 51.6733 L1277.28 51.6733 Q1277.76 59.3701 1281.89 63.421 Q1286.07 67.4314 1293.48 67.4314 Q1297.77 67.4314 1301.78 66.3781 Q1305.83 65.3249 1309.8 63.2184 L1309.8 70.267 Q1305.79 71.9684 1301.58 72.8596 Q1297.37 73.7508 1293.03 73.7508 Q1282.18 73.7508 1275.82 67.4314 Q1269.5 61.1119 1269.5 50.3365 Q1269.5 39.1965 1275.49 32.6746 Q1281.53 26.1121 1291.74 26.1121 Q1300.89 26.1121 1306.2 32.0264 Q1311.55 37.9003 1311.55 48.0275 M1304.09 45.84 Q1304.01 39.7232 1300.65 36.0774 Q1297.33 32.4315 1291.82 32.4315 Q1285.58 32.4315 1281.81 35.9558 Q1278.09 39.4801 1277.52 45.8805 L1304.09 45.84 Z" fill="#000000" fill-rule="nonzero" fill-opacity="1" /><polyline clip-path="url(#clip732)" style="stroke:#808080; stroke-linecap:round; stroke-linejoin:round; stroke-width:4; stroke-opacity:1; fill:none" stroke-dasharray="2, 4" points="1699.28,2226.22 1699.28,-932.025 "/>
<polyline clip-path="url(#clip732)" style="stroke:#009af9; stroke-linecap:round; stroke-linejoin:round; stroke-width:4; stroke-opacity:1; fill:none" points="547.585,1114.98 624.472,1114.98 "/>
<polyline clip-path="url(#clip732)" style="stroke:#009af9; stroke-linecap:round; stroke-linejoin:round; stroke-width:4; stroke-opacity:1; fill:none" points="658.727,881.041 867.776,881.041 "/>
<polyline clip-path="url(#clip732)" style="stroke:#009af9; stroke-linecap:round; stroke-linejoin:round; stroke-width:4; stroke-opacity:1; fill:none" points="544.472,647.097 975.068,647.097 "/>
<polyline clip-path="url(#clip732)" style="stroke:#009af9; stroke-linecap:round; stroke-linejoin:round; stroke-width:4; stroke-opacity:1; fill:none" points="95.3617,413.153 1699.28,413.153 "/>
<polyline clip-path="url(#clip732)" style="stroke:#e26f46; stroke-linecap:round; stroke-linejoin:round; stroke-width:4; stroke-opacity:1; fill:none" points="1003.02,179.209 1699.28,179.209 "/>
<path clip-path="url(#clip730)" d="M1814.65 311.335 L2064.76 311.335 L2064.76 155.815 L1814.65 155.815  Z" fill="#ffffff" fill-rule="evenodd" fill-opacity="1"/>
<polyline clip-path="url(#clip730)" style="stroke:#000000; stroke-linecap:round; stroke-linejoin:round; stroke-width:4; stroke-opacity:1; fill:none" points="1814.65,311.335 2064.76,311.335 2064.76,155.815 1814.65,155.815 1814.65,311.335 "/>
<polyline clip-path="url(#clip730)" style="stroke:#009af9; stroke-linecap:round; stroke-linejoin:round; stroke-width:4; stroke-opacity:1; fill:none" points="1837.07,207.655 1971.57,207.655 "/>
<path clip-path="url(#clip730)" d="M1993.98 190.375 L1998.66 190.375 L1998.66 204.541 L2015.65 204.541 L2015.65 190.375 L2020.33 190.375 L2020.33 224.935 L2015.65 224.935 L2015.65 208.476 L1998.66 208.476 L1998.66 224.935 L1993.98 224.935 L1993.98 190.375 Z" fill="#000000" fill-rule="nonzero" fill-opacity="1" /><path clip-path="url(#clip730)" d="M2038.17 209.263 Q2037.02 207.273 2034.68 207.273 Q2032.34 207.273 2031.18 209.263 Q2030 211.254 2030 215.236 Q2030 219.24 2031.18 221.231 Q2032.34 223.222 2034.68 223.222 Q2037.02 223.222 2038.17 221.231 Q2039.35 219.24 2039.35 215.236 Q2039.35 211.254 2038.17 209.263 M2034.68 205.213 Q2038.4 205.213 2040.37 207.782 Q2042.34 210.351 2042.34 215.236 Q2042.34 220.143 2040.37 222.712 Q2038.4 225.282 2034.68 225.282 Q2030.93 225.282 2028.96 222.712 Q2026.99 220.143 2026.99 215.236 Q2026.99 210.351 2028.96 207.782 Q2030.93 205.213 2034.68 205.213 Z" fill="#000000" fill-rule="nonzero" fill-opacity="1" /><polyline clip-path="url(#clip730)" style="stroke:#e26f46; stroke-linecap:round; stroke-linejoin:round; stroke-width:4; stroke-opacity:1; fill:none" points="1837.07,259.495 1971.57,259.495 "/>
<path clip-path="url(#clip730)" d="M1993.98 242.215 L1998.66 242.215 L1998.66 256.381 L2015.65 256.381 L2015.65 242.215 L2020.33 242.215 L2020.33 276.775 L2015.65 276.775 L2015.65 260.316 L1998.66 260.316 L1998.66 276.775 L1993.98 276.775 L1993.98 242.215 Z" fill="#000000" fill-rule="nonzero" fill-opacity="1" /><path clip-path="url(#clip730)" d="M2028.59 274.228 L2033.31 274.228 L2033.31 260.085 L2028.15 261.034 L2028.15 258.349 L2033.47 257.446 L2036.64 257.446 L2036.64 274.228 L2041.39 274.228 L2041.39 276.775 L2028.59 276.775 L2028.59 274.228 Z" fill="#000000" fill-rule="nonzero" fill-opacity="1" /></svg>
